<?xml version="1.0" standalone="no"?><!DOCTYPE svg PUBLIC "-//W3C//DTD SVG 1.1//EN" "http://www.w3.org/Graphics/SVG/1.1/DTD/svg11.dtd"><svg xmlns="http://www.w3.org/2000/svg" version="1.1" width="1047.924" height="780.058" xmlns:xlink="http://www.w3.org/1999/xlink" xlink="http://www.w3.org/1999/xlink" style="position:relative;overflow:hidden;" viewBox="44.025 63.724 1047.924 780.058"><defs/><g><g width="795.818" height="30.833" transform="scale(1,1) translate(56.025,75.724)"><g stroke="#000000" opacity="1" stroke-width="0" stroke-dasharray="none" width="795.818" height="30.833" transform="scale(1,1) translate(0,0)" fill="none" stroke-opacity="1"><rect width="795.818" height="30.833"/></g><g width="795.818359375" height="30.833332061767578" transform="scale(1,1) translate(0,0)"><text width="795.818359375" height="30.833332061767578" transform="scale(1,1) translate(0,0)" xml:space="preserve"><tspan xml:space="preserve" text-rendering="optimizeSpeed" font-size="27.77777777777778" font-weight="bold" font-style="normal" fill="#333333" opacity="1" x="0" text-anchor="start" y="25" textLength="795.818359375" style="font-family: Arial, Helvetica Neue, Helvetica, sans-serif;">UML Class Diagram: Transport for London Stations facilities</tspan></text></g></g><g width="147.833" height="140.5" transform="scale(1,1) translate(362.254,142.1)"><g stroke="#6E6E6E" opacity="1" stroke-width="3" stroke-dasharray="none" width="147.833" height="140.5" transform="scale(1,1) translate(0,0)" fill="none" stroke-opacity="1"><rect width="147.833" height="140.5"/></g><g transform="scale(1,1) translate(0,0)" fill="#E8E8E8" opacity="0.01" stroke="#E8E8E8"><path d="M1.5,1.5 L145.167,1.5 L145.167,28.5 L1.5,28.5 z M1.5,28.5 L145.167,28.5 L145.167,83.167 L1.5,83.167 z M1.5,83.167 L145.167,83.167 L145.167,138 L1.5,138 z" stroke-width="0" stroke-dasharray="none"/></g><g width="135.66666666666666" height="18" transform="scale(1,1) translate(5.5,5.5)"><text width="135.66666666666666" height="16.66666603088379" transform="scale(1,1) translate(0,0.6666669845581055)" xml:space="preserve"><tspan xml:space="preserve" text-rendering="optimizeSpeed" font-size="13.88888888888889" font-weight="normal" font-style="normal" fill="#000000" opacity="1" x="40.45" text-anchor="start" y="14.167" textLength="54.76726531982422" style="font-family: Verdana, Geneva, sans-serif;">stations</tspan></text></g><g width="135.66666666666666" height="45.666666666666664" transform="scale(1,1) translate(5.5,32.5)"><text width="135.66666666666666" height="26.66666603088379" transform="scale(1,1) translate(0,0)" xml:space="preserve"><tspan xml:space="preserve" text-rendering="optimizeSpeed" font-size="11.11111111111111" font-weight="normal" font-style="normal" fill="#000000" opacity="1" x="0" text-anchor="start" y="10.833" textLength="96.02618408203125" style="font-family: Verdana, Geneva, sans-serif;">station ID: string</tspan><tspan xml:space="preserve" text-rendering="optimizeSpeed" font-size="11.11111111111111" font-weight="normal" font-style="normal" fill="#000000" opacity="1" x="0" text-anchor="start" y="24.167" textLength="103.32144165039062" style="font-family: Verdana, Geneva, sans-serif;">station type:string</tspan></text></g><g transform="scale(1,1) translate(0,0)" fill="#6E6E6E" stroke="#6E6E6E" stroke-opacity="1"><path d="M1.5,28 L145.167,28" fill="none" stroke-width="1" stroke-dasharray="none"/><g><g stroke-dasharray="none"><path d="M0.5,27L2.5,27L2.5,29L0.5,29z" stroke-width="0" fill="none"/></g></g></g><g transform="scale(1,1) translate(0,0)" fill="#6E6E6E" stroke="#6E6E6E" stroke-opacity="1"><path d="M1.5,82.667 L145.167,82.667" fill="none" stroke-width="1" stroke-dasharray="none"/><g><g stroke-dasharray="none"><path d="M0.5,81.667L2.5,81.667L2.5,83.667L0.5,83.667z" stroke-width="0" fill="none"/></g></g></g><g stroke="white" fill="none" stroke-opacity="0" stroke-width="3" stroke-dasharray="none" width="3" height="137.5" transform="scale(1,1) translate(4.5,1.5)"><rect width="3" height="137.5"/></g><g stroke="white" fill="none" stroke-opacity="0" stroke-width="3" stroke-dasharray="none" width="144.833" height="3" transform="scale(1,1) translate(1.5,4.5)"><rect width="144.833" height="3"/></g></g><g width="150.833" height="0" transform="scale(1,1) translate(360.754,470.271)"><g fill="#545454" stroke="#545454" stroke-opacity="1" transform="scale(1,1) translate(0,0)"><path fill="none" stroke-width="1" stroke-dasharray="none" d="M0,0 L0,0 M0,0 L0,0 M150.833,0 L150.833,0 M0,0 L0,0"/><g><g stroke-dasharray="none"><path d="M0,0L-10,0L-10,-10L0,-10z" stroke-width="0" fill="none"/></g></g></g></g><g width="147.833" height="267.766" transform="scale(1,1) translate(360.754,336.388)"><g stroke="#6E6E6E" opacity="1" stroke-width="3" stroke-dasharray="none" width="147.833" height="267.766" transform="scale(1,1) translate(0,0)" fill="none" stroke-opacity="1"><rect width="147.833" height="267.766"/></g><g transform="scale(1,1) translate(0,0)" fill="#E8E8E8" opacity="0.01" stroke="#E8E8E8"><path d="M1.5,1.5 L146.333,1.5 L146.333,28.698 L1.5,28.698 z M1.5,28.698 L146.333,28.698 L146.333,211.031 L1.5,211.031 z M1.5,211.031 L146.333,211.031 L146.333,266.266 L1.5,266.266 z" stroke-width="0" stroke-dasharray="none"/></g><g width="140.83333333333331" height="18.197802197802197" transform="scale(1,1) translate(5.5,5.5)"><text width="140.83333333333331" height="16.66666603088379" transform="scale(1,1) translate(0,0.765568083459204)" xml:space="preserve"><tspan xml:space="preserve" text-rendering="optimizeSpeed" font-size="13.88888888888889" font-weight="normal" font-style="normal" fill="#000000" opacity="1" x="46.65" text-anchor="start" y="14.167" textLength="47.53410339355469" style="font-family: Verdana, Geneva, sans-serif;">station</tspan></text></g><g width="140.83333333333331" height="173.33332920074463" transform="scale(1,1) translate(5.5,32.698)"><text width="140.83333333333331" height="173.33332920074463" transform="scale(1,1) translate(0,0)" xml:space="preserve"><tspan xml:space="preserve" text-rendering="optimizeSpeed" font-size="11.11111111111111" font-weight="normal" font-style="normal" fill="#000000" opacity="1" x="0" text-anchor="start" y="10.833" textLength="36.16712951660156" style="font-family: Verdana, Geneva, sans-serif;">name:</tspan><tspan xml:space="preserve" text-rendering="optimizeSpeed" font-size="11.11111111111111" font-weight="normal" font-style="normal" fill="#000000" opacity="1" x="0" text-anchor="start" y="24.167" textLength="86.1925048828125" style="font-family: Verdana, Geneva, sans-serif;">contact details:</tspan><tspan xml:space="preserve" text-rendering="optimizeSpeed" font-size="11.11111111111111" font-weight="normal" font-style="normal" fill="#000000" opacity="1" x="0" text-anchor="start" y="37.5" textLength="75.19811248779297" style="font-family: Verdana, Geneva, sans-serif;">serving lines:</tspan><tspan xml:space="preserve" text-rendering="optimizeSpeed" font-size="11.11111111111111" font-weight="normal" font-style="normal" fill="#000000" opacity="1" x="0" text-anchor="start" y="50.833" textLength="36.991573333740234" style="font-family: Verdana, Geneva, sans-serif;">zones:</tspan><tspan xml:space="preserve" text-rendering="optimizeSpeed" font-size="11.11111111111111" font-weight="normal" font-style="normal" fill="#000000" opacity="1" x="0" text-anchor="start" y="64.167" textLength="50.38336181640625" style="font-family: Verdana, Geneva, sans-serif;">facilities:</tspan><tspan xml:space="preserve" text-rendering="optimizeSpeed" font-size="11.11111111111111" font-weight="normal" font-style="normal" fill="#000000" opacity="1" x="0" text-anchor="start" y="77.5" textLength="53.719139099121094" style="font-family: Verdana, Geneva, sans-serif;">entrance:</tspan><tspan xml:space="preserve" text-rendering="optimizeSpeed" font-size="11.11111111111111" font-weight="normal" font-style="normal" fill="#000000" opacity="1" x="0" text-anchor="start" y="90.833" textLength="62.657859802246094" style="font-family: Verdana, Geneva, sans-serif;">Placemark:</tspan><tspan xml:space="preserve" text-rendering="optimizeSpeed" font-size="11.11111111111111" font-weight="normal" font-style="normal" fill="#000000" opacity="1" x="0" text-anchor="start" y="104.167" textLength="72.2420425415039" style="font-family: Verdana, Geneva, sans-serif;">StationName</tspan><tspan xml:space="preserve" text-rendering="optimizeSpeed" font-size="11.11111111111111" font-weight="normal" font-style="normal" fill="#000000" opacity="1" x="0" text-anchor="start" y="117.5" textLength="135.14395141601562" style="font-family: Verdana, Geneva, sans-serif;">PublicToilet Exists:string</tspan><tspan xml:space="preserve" text-rendering="optimizeSpeed" font-size="11.11111111111111" font-weight="normal" font-style="normal" fill="#000000" opacity="1" x="0" text-anchor="start" y="130.833" textLength="60.553348541259766" style="font-family: Verdana, Geneva, sans-serif;">Accesibility</tspan><tspan xml:space="preserve" text-rendering="optimizeSpeed" font-size="11.11111111111111" font-weight="normal" font-style="normal" fill="#000000" opacity="1" x="0" text-anchor="start" y="144.167" textLength="124.49129486083984" style="font-family: Verdana, Geneva, sans-serif;">AccesibleInterchanges</tspan><tspan xml:space="preserve" text-rendering="optimizeSpeed" font-size="11.11111111111111" font-weight="normal" font-style="normal" fill="#000000" opacity="1" x="0" text-anchor="start" y="157.5" textLength="28.66575813293457" style="font-family: Verdana, Geneva, sans-serif;">Lines</tspan><tspan xml:space="preserve" text-rendering="optimizeSpeed" font-size="11.11111111111111" font-weight="normal" font-style="normal" fill="#000000" opacity="1" x="0" text-anchor="start" y="170.833" textLength="45.7675666809082" style="font-family: Verdana, Geneva, sans-serif;">Naptans</tspan></text></g><g transform="scale(1,1) translate(0,0)" fill="#6E6E6E" stroke="#6E6E6E" stroke-opacity="1"><path d="M1.5,28.198 L146.333,28.198" fill="none" stroke-width="1" stroke-dasharray="none"/><g><g stroke-dasharray="none"><path d="M0.5,27.198L2.5,27.198L2.5,29.198L0.5,29.198z" stroke-width="0" fill="none"/></g></g></g><g transform="scale(1,1) translate(0,0)" fill="#6E6E6E" stroke="#6E6E6E" stroke-opacity="1"><path d="M1.5,210.531 L146.333,210.531" fill="none" stroke-width="1" stroke-dasharray="none"/><g><g stroke-dasharray="none"><path d="M0.5,209.531L2.5,209.531L2.5,211.531L0.5,211.531z" stroke-width="0" fill="none"/></g></g></g><g stroke="white" fill="none" stroke-opacity="0" stroke-width="3" stroke-dasharray="none" width="3" height="264.766" transform="scale(1,1) translate(4.5,1.5)"><rect width="3" height="264.766"/></g><g stroke="white" fill="none" stroke-opacity="0" stroke-width="3" stroke-dasharray="none" width="144.833" height="3" transform="scale(1,1) translate(1.5,4.5)"><rect width="144.833" height="3"/></g></g><g width="147.833" height="140.5" transform="scale(1,1) translate(95.964,332.751)"><g stroke="#6E6E6E" opacity="1" stroke-width="3" stroke-dasharray="none" width="147.833" height="140.5" transform="scale(1,1) translate(0,0)" fill="none" stroke-opacity="1"><rect width="147.833" height="140.5"/></g><g transform="scale(1,1) translate(0,0)" fill="#E8E8E8" opacity="0.01" stroke="#E8E8E8"><path d="M1.5,1.5 L145.167,1.5 L145.167,28.5 L1.5,28.5 z M1.5,28.5 L145.167,28.5 L145.167,83.167 L1.5,83.167 z M1.5,83.167 L145.167,83.167 L145.167,138 L1.5,138 z" stroke-width="0" stroke-dasharray="none"/></g><g width="135.66666666666666" height="18" transform="scale(1,1) translate(5.5,5.5)"><text width="135.66666666666666" height="16.66666603088379" transform="scale(1,1) translate(0,0.6666669845581055)" xml:space="preserve"><tspan xml:space="preserve" text-rendering="optimizeSpeed" font-size="13.88888888888889" font-weight="normal" font-style="normal" fill="#000000" opacity="1" x="17.123" text-anchor="start" y="14.167" textLength="101.42011260986328" style="font-family: Verdana, Geneva, sans-serif;">contact details</tspan></text></g><g width="135.66666666666666" height="45.666666666666664" transform="scale(1,1) translate(5.5,32.5)"><text width="135.66666666666666" height="26.66666603088379" transform="scale(1,1) translate(0,0)" xml:space="preserve"><tspan xml:space="preserve" text-rendering="optimizeSpeed" font-size="11.11111111111111" font-weight="normal" font-style="normal" fill="#000000" opacity="1" x="0" text-anchor="start" y="10.833" textLength="43.44612121582031" style="font-family: Verdana, Geneva, sans-serif;">address</tspan><tspan xml:space="preserve" text-rendering="optimizeSpeed" font-size="11.11111111111111" font-weight="normal" font-style="normal" fill="#000000" opacity="1" x="0" text-anchor="start" y="24.167" textLength="34.339256286621094" style="font-family: Verdana, Geneva, sans-serif;">phone</tspan></text></g><g transform="scale(1,1) translate(0,0)" fill="#6E6E6E" stroke="#6E6E6E" stroke-opacity="1"><path d="M1.5,28 L145.167,28" fill="none" stroke-width="1" stroke-dasharray="none"/><g><g stroke-dasharray="none"><path d="M0.5,27L2.5,27L2.5,29L0.5,29z" stroke-width="0" fill="none"/></g></g></g><g transform="scale(1,1) translate(0,0)" fill="#6E6E6E" stroke="#6E6E6E" stroke-opacity="1"><path d="M1.5,82.667 L145.167,82.667" fill="none" stroke-width="1" stroke-dasharray="none"/><g><g stroke-dasharray="none"><path d="M0.5,81.667L2.5,81.667L2.5,83.667L0.5,83.667z" stroke-width="0" fill="none"/></g></g></g><g stroke="white" fill="none" stroke-opacity="0" stroke-width="3" stroke-dasharray="none" width="3" height="137.5" transform="scale(1,1) translate(4.5,1.5)"><rect width="3" height="137.5"/></g><g stroke="white" fill="none" stroke-opacity="0" stroke-width="3" stroke-dasharray="none" width="144.833" height="3" transform="scale(1,1) translate(1.5,4.5)"><rect width="144.833" height="3"/></g></g><g width="0" height="143.5" transform="scale(1,1) translate(169.88,490.231)"><g fill="#545454" stroke="#545454" stroke-opacity="1" transform="scale(1,1) translate(0,0)"><path fill="none" stroke-width="1" stroke-dasharray="none" d="M0,0 L0,0 M0,0 L0,0 M0,143.5 L0,143.5 M0,0 L0,0"/><g><g stroke-dasharray="none"><path d="M0,0L-10,0L-10,-10L0,-10z" stroke-width="0" fill="none"/></g></g></g></g><g width="147.833" height="140.5" transform="scale(1,1) translate(95.964,490.231)"><g stroke="#6E6E6E" opacity="1" stroke-width="3" stroke-dasharray="none" width="147.833" height="140.5" transform="scale(1,1) translate(0,0)" fill="none" stroke-opacity="1"><rect width="147.833" height="140.5"/></g><g transform="scale(1,1) translate(0,0)" fill="#E8E8E8" opacity="0.01" stroke="#E8E8E8"><path d="M1.5,1.5 L146.333,1.5 L146.333,28.698 L1.5,28.698 z M1.5,28.698 L146.333,28.698 L146.333,83.765 L1.5,83.765 z M1.5,83.765 L146.333,83.765 L146.333,139 L1.5,139 z" stroke-width="0" stroke-dasharray="none"/></g><g width="140.83333333333331" height="18.197802197802197" transform="scale(1,1) translate(5.5,5.5)"><text width="140.83333333333331" height="16.66666603088379" transform="scale(1,1) translate(0,0.765568083459204)" xml:space="preserve"><tspan xml:space="preserve" text-rendering="optimizeSpeed" font-size="13.88888888888889" font-weight="normal" font-style="normal" fill="#000000" opacity="1" x="26.577" text-anchor="start" y="14.167" textLength="87.67914581298828" style="font-family: Verdana, Geneva, sans-serif;">serving lines</tspan></text></g><g width="140.83333333333331" height="46.06715506715506" transform="scale(1,1) translate(5.5,32.698)"><text width="140.83333333333331" height="13.333333015441895" transform="scale(1,1) translate(0,0)" xml:space="preserve"><tspan xml:space="preserve" text-rendering="optimizeSpeed" font-size="11.11111111111111" font-weight="normal" font-style="normal" fill="#000000" opacity="1" x="0" text-anchor="start" y="10.833" textLength="64.36641693115234" style="font-family: Verdana, Geneva, sans-serif;">serving line</tspan></text></g><g transform="scale(1,1) translate(0,0)" fill="#6E6E6E" stroke="#6E6E6E" stroke-opacity="1"><path d="M1.5,28.198 L146.333,28.198" fill="none" stroke-width="1" stroke-dasharray="none"/><g><g stroke-dasharray="none"><path d="M0.5,27.198L2.5,27.198L2.5,29.198L0.5,29.198z" stroke-width="0" fill="none"/></g></g></g><g transform="scale(1,1) translate(0,0)" fill="#6E6E6E" stroke="#6E6E6E" stroke-opacity="1"><path d="M1.5,83.265 L146.333,83.265" fill="none" stroke-width="1" stroke-dasharray="none"/><g><g stroke-dasharray="none"><path d="M0.5,82.265L2.5,82.265L2.5,84.265L0.5,84.265z" stroke-width="0" fill="none"/></g></g></g><g stroke="white" fill="none" stroke-opacity="0" stroke-width="3" stroke-dasharray="none" width="3" height="137.5" transform="scale(1,1) translate(4.5,1.5)"><rect width="3" height="137.5"/></g><g stroke="white" fill="none" stroke-opacity="0" stroke-width="3" stroke-dasharray="none" width="144.833" height="3" transform="scale(1,1) translate(1.5,4.5)"><rect width="144.833" height="3"/></g></g><g width="2" height="53.787" transform="scale(1,1) translate(434.671,282.6)"><g transform="scale(1,1) translate(0,0)" fill="#7F7F7F" stroke="#7F7F7F" stroke-opacity="1"><path d="M0,53.787 L0,28.787 L1.5,28.787 L1.5,0" fill="none" stroke-width="2" stroke-dasharray="none"/><g><g stroke-dasharray="none"><path d="M-2,51.787L2,51.787L2,55.787L-2,55.787z" stroke-width="0" fill="none"/></g></g></g><g stroke-width="0" stroke-dasharray="none" fill="#FFFFFF" opacity="1" width="51.353" height="16.167" transform="scale(1,1) translate(-24.927,20.704)"><rect width="51.353" height="16.167"/></g><g width="49.353023529052734" height="53.7874287742369" transform="scale(1,1) translate(-23.927,21.704)"><text width="49.353023529052734" height="14.166666030883789" transform="scale(1,1) translate(0,0)" xml:space="preserve"><tspan xml:space="preserve" text-rendering="optimizeSpeed" font-size="12.5" font-weight="normal" font-style="normal" fill="#333333" opacity="1" x="0" text-anchor="start" y="11.667" textLength="49.353023529052734" style="font-family: Arial, Helvetica Neue, Helvetica, sans-serif;">&lt;&lt;has&gt;&gt;</tspan></text></g></g><g width="111.464" height="2" transform="scale(1,1) translate(249.291,403.329)"><g transform="scale(1,1) translate(0,0)" fill="#7F7F7F" stroke="#7F7F7F" stroke-opacity="1"><path d="M0,1.608 L50.91,1.608 L50.91,0 L111.464,0" fill="none" stroke-width="2" stroke-dasharray="none"/><g><g stroke-dasharray="none"><path d="M-2,-0.392L2,-0.392L2,3.608L-2,3.608z" stroke-width="0" fill="none"/></g></g></g><g stroke-width="0" stroke-dasharray="none" fill="#FFFFFF" opacity="1" width="51.353" height="16.167" transform="scale(1,1) translate(25.234,-7.279)"><rect width="51.353" height="16.167"/></g><g width="49.353023529052734" height="14.166666030883789" transform="scale(1,1) translate(26.234,-6.279)"><text width="49.353023529052734" height="14.166666030883789" transform="scale(1,1) translate(0,0)" xml:space="preserve"><tspan xml:space="preserve" text-rendering="optimizeSpeed" font-size="12.5" font-weight="normal" font-style="normal" fill="#333333" opacity="1" x="0" text-anchor="start" y="11.667" textLength="49.353023529052734" style="font-family: Arial, Helvetica Neue, Helvetica, sans-serif;">&lt;&lt;has&gt;&gt;</tspan></text></g></g><g width="124.93" height="90.21" transform="scale(1,1) translate(242.188,454.752)"><g transform="scale(1,1) translate(0,0)" fill="#7F7F7F" stroke="#7F7F7F" stroke-opacity="1"><path d="M0,90.21 L68.51,90.21 L68.51,0 L124.93,0" fill="none" stroke-width="2" stroke-dasharray="none"/><g><g stroke-dasharray="none"><path d="M-2,88.21L2,88.21L2,92.21L-2,92.21z" stroke-width="0" fill="none"/></g></g></g><g stroke-width="0" stroke-dasharray="none" fill="#FFFFFF" opacity="1" width="51.353" height="16.167" transform="scale(1,1) translate(42.834,37.022)"><rect width="51.353" height="16.167"/></g><g width="49.353023529052734" height="90.2101804203607" transform="scale(1,1) translate(43.834,38.022)"><text width="49.353023529052734" height="14.166666030883789" transform="scale(1,1) translate(0,0)" xml:space="preserve"><tspan xml:space="preserve" text-rendering="optimizeSpeed" font-size="12.5" font-weight="normal" font-style="normal" fill="#333333" opacity="1" x="0" text-anchor="start" y="11.667" textLength="49.353023529052734" style="font-family: Arial, Helvetica Neue, Helvetica, sans-serif;">&lt;&lt;has&gt;&gt;</tspan></text></g></g><g width="147.833" height="140.5" transform="scale(1,1) translate(196.404,650.811)"><g stroke="#6E6E6E" opacity="1" stroke-width="3" stroke-dasharray="none" width="147.833" height="140.5" transform="scale(1,1) translate(0,0)" fill="none" stroke-opacity="1"><rect width="147.833" height="140.5"/></g><g transform="scale(1,1) translate(0,0)" fill="#E8E8E8" opacity="0.01" stroke="#E8E8E8"><path d="M1.5,1.5 L146.333,1.5 L146.333,28.7 L1.5,28.7 z M1.5,28.7 L146.333,28.7 L146.333,83.766 L1.5,83.766 z M1.5,83.766 L146.333,83.766 L146.333,139 L1.5,139 z" stroke-width="0" stroke-dasharray="none"/></g><g width="140.83333333333331" height="18.1996359223301" transform="scale(1,1) translate(5.5,5.5)"><text width="140.83333333333331" height="16.66666603088379" transform="scale(1,1) translate(0,0.7664849457231551)" xml:space="preserve"><tspan xml:space="preserve" text-rendering="optimizeSpeed" font-size="13.88888888888889" font-weight="normal" font-style="normal" fill="#000000" opacity="1" x="50.453" text-anchor="start" y="14.167" textLength="39.928131103515625" style="font-family: Verdana, Geneva, sans-serif;">zones</tspan></text></g><g width="140.83333333333331" height="46.066747572815544" transform="scale(1,1) translate(5.5,32.7)"><text width="140.83333333333331" height="13.333333015441895" transform="scale(1,1) translate(0,0)" xml:space="preserve"><tspan xml:space="preserve" text-rendering="optimizeSpeed" font-size="11.11111111111111" font-weight="normal" font-style="normal" fill="#000000" opacity="1" x="0" text-anchor="start" y="10.833" textLength="26.159881591796875" style="font-family: Verdana, Geneva, sans-serif;">zone</tspan></text></g><g transform="scale(1,1) translate(0,0)" fill="#6E6E6E" stroke="#6E6E6E" stroke-opacity="1"><path d="M1.5,28.2 L146.333,28.2" fill="none" stroke-width="1" stroke-dasharray="none"/><g><g stroke-dasharray="none"><path d="M0.5,27.2L2.5,27.2L2.5,29.2L0.5,29.2z" stroke-width="0" fill="none"/></g></g></g><g transform="scale(1,1) translate(0,0)" fill="#6E6E6E" stroke="#6E6E6E" stroke-opacity="1"><path d="M1.5,83.266 L146.333,83.266" fill="none" stroke-width="1" stroke-dasharray="none"/><g><g stroke-dasharray="none"><path d="M0.5,82.266L2.5,82.266L2.5,84.266L0.5,84.266z" stroke-width="0" fill="none"/></g></g></g><g stroke="white" fill="none" stroke-opacity="0" stroke-width="3" stroke-dasharray="none" width="3" height="137.5" transform="scale(1,1) translate(4.5,1.5)"><rect width="3" height="137.5"/></g><g stroke="white" fill="none" stroke-opacity="0" stroke-width="3" stroke-dasharray="none" width="144.833" height="3" transform="scale(1,1) translate(1.5,4.5)"><rect width="144.833" height="3"/></g></g><g width="147.833" height="140.5" transform="scale(1,1) translate(368.454,693.282)"><g stroke="#6E6E6E" opacity="1" stroke-width="3" stroke-dasharray="none" width="147.833" height="140.5" transform="scale(1,1) translate(0,0)" fill="none" stroke-opacity="1"><rect width="147.833" height="140.5"/></g><g transform="scale(1,1) translate(0,0)" fill="#E8E8E8" opacity="0.01" stroke="#E8E8E8"><path d="M1.5,1.5 L146.333,1.5 L146.333,28.7 L1.5,28.7 z M1.5,28.7 L146.333,28.7 L146.333,83.766 L1.5,83.766 z M1.5,83.766 L146.333,83.766 L146.333,139 L1.5,139 z" stroke-width="0" stroke-dasharray="none"/></g><g width="140.83333333333331" height="18.1996359223301" transform="scale(1,1) translate(5.5,5.5)"><text width="140.83333333333331" height="16.66666603088379" transform="scale(1,1) translate(0,0.7664849457231551)" xml:space="preserve"><tspan xml:space="preserve" text-rendering="optimizeSpeed" font-size="13.88888888888889" font-weight="normal" font-style="normal" fill="#000000" opacity="1" x="42.084" text-anchor="start" y="14.167" textLength="56.665367126464844" style="font-family: Verdana, Geneva, sans-serif;">facilities</tspan></text></g><g width="140.83333333333331" height="46.066747572815544" transform="scale(1,1) translate(5.5,32.7)"><text width="140.83333333333331" height="13.333333015441895" transform="scale(1,1) translate(0,0)" xml:space="preserve"><tspan xml:space="preserve" text-rendering="optimizeSpeed" font-size="11.11111111111111" font-weight="normal" font-style="normal" fill="#000000" opacity="1" x="0" text-anchor="start" y="10.833" textLength="71.43384552001953" style="font-family: Verdana, Geneva, sans-serif;">facility name</tspan></text></g><g transform="scale(1,1) translate(0,0)" fill="#6E6E6E" stroke="#6E6E6E" stroke-opacity="1"><path d="M1.5,28.2 L146.333,28.2" fill="none" stroke-width="1" stroke-dasharray="none"/><g><g stroke-dasharray="none"><path d="M0.5,27.2L2.5,27.2L2.5,29.2L0.5,29.2z" stroke-width="0" fill="none"/></g></g></g><g transform="scale(1,1) translate(0,0)" fill="#6E6E6E" stroke="#6E6E6E" stroke-opacity="1"><path d="M1.5,83.266 L146.333,83.266" fill="none" stroke-width="1" stroke-dasharray="none"/><g><g stroke-dasharray="none"><path d="M0.5,82.266L2.5,82.266L2.5,84.266L0.5,84.266z" stroke-width="0" fill="none"/></g></g></g><g stroke="white" fill="none" stroke-opacity="0" stroke-width="3" stroke-dasharray="none" width="3" height="137.5" transform="scale(1,1) translate(4.5,1.5)"><rect width="3" height="137.5"/></g><g stroke="white" fill="none" stroke-opacity="0" stroke-width="3" stroke-dasharray="none" width="144.833" height="3" transform="scale(1,1) translate(1.5,4.5)"><rect width="144.833" height="3"/></g></g><g width="8.37" height="106.304" transform="scale(1,1) translate(434.671,604.154)"><g transform="scale(1,1) translate(0,0)" fill="#7F7F7F" stroke="#7F7F7F" stroke-opacity="1"><path d="M8.37,106.304 L8.37,81.304 L0,81.304 L0,0" fill="none" stroke-width="2" stroke-dasharray="none"/><g><g stroke-dasharray="none"><path d="M6.37,104.304L10.37,104.304L10.37,108.304L6.37,108.304z" stroke-width="0" fill="none"/></g></g></g><g stroke-width="0" stroke-dasharray="none" fill="#FFFFFF" opacity="1" width="51.353" height="16.167" transform="scale(1,1) translate(-21.492,73.221)"><rect width="51.353" height="16.167"/></g><g width="49.353023529052734" height="106.30427159995713" transform="scale(1,1) translate(-20.492,74.221)"><text width="49.353023529052734" height="14.166666030883789" transform="scale(1,1) translate(0,0)" xml:space="preserve"><tspan xml:space="preserve" text-rendering="optimizeSpeed" font-size="12.5" font-weight="normal" font-style="normal" fill="#333333" opacity="1" x="0" text-anchor="start" y="11.667" textLength="49.353023529052734" style="font-family: Arial, Helvetica Neue, Helvetica, sans-serif;">&lt;&lt;has&gt;&gt;</tspan></text></g></g><g width="124.275" height="46.657" transform="scale(1,1) translate(273.438,604.154)"><g transform="scale(1,1) translate(0,0)" fill="#7F7F7F" stroke="#7F7F7F" stroke-opacity="1"><path d="M0,46.657 L0,25 L124.275,25 L124.275,0" fill="none" stroke-width="2" stroke-dasharray="none"/><g><g stroke-dasharray="none"><path d="M-2,44.657L2,44.657L2,48.657L-2,48.657z" stroke-width="0" fill="none"/></g></g></g><g stroke-width="0" stroke-dasharray="none" fill="#FFFFFF" opacity="1" width="51.353" height="16.167" transform="scale(1,1) translate(36.461,16.917)"><rect width="51.353" height="16.167"/></g><g width="49.353023529052734" height="46.65741451420831" transform="scale(1,1) translate(37.461,17.917)"><text width="49.353023529052734" height="14.166666030883789" transform="scale(1,1) translate(0,0)" xml:space="preserve"><tspan xml:space="preserve" text-rendering="optimizeSpeed" font-size="12.5" font-weight="normal" font-style="normal" fill="#333333" opacity="1" x="0" text-anchor="start" y="11.667" textLength="49.353023529052734" style="font-family: Arial, Helvetica Neue, Helvetica, sans-serif;">&lt;&lt;has&gt;&gt;</tspan></text></g></g><g width="147.833" height="140.5" transform="scale(1,1) translate(679.795,325.948)"><g stroke="#6E6E6E" opacity="1" stroke-width="3" stroke-dasharray="none" width="147.833" height="140.5" transform="scale(1,1) translate(0,0)" fill="none" stroke-opacity="1"><rect width="147.833" height="140.5"/></g><g transform="scale(1,1) translate(0,0)" fill="#E8E8E8" opacity="0.01" stroke="#E8E8E8"><path d="M1.5,1.5 L146.333,1.5 L146.333,28.7 L1.5,28.7 z M1.5,28.7 L146.333,28.7 L146.333,83.766 L1.5,83.766 z M1.5,83.766 L146.333,83.766 L146.333,139 L1.5,139 z" stroke-width="0" stroke-dasharray="none"/></g><g width="140.83333333333331" height="18.1996359223301" transform="scale(1,1) translate(5.5,5.5)"><text width="140.83333333333331" height="16.66666603088379" transform="scale(1,1) translate(0,0.7664849457231551)" xml:space="preserve"><tspan xml:space="preserve" text-rendering="optimizeSpeed" font-size="13.88888888888889" font-weight="normal" font-style="normal" fill="#000000" opacity="1" x="36.383" text-anchor="start" y="14.167" textLength="68.06759643554688" style="font-family: Verdana, Geneva, sans-serif;">entrances</tspan></text></g><g width="140.83333333333331" height="46.066747572815544" transform="scale(1,1) translate(5.5,32.7)"><text width="140.83333333333331" height="13.333333015441895" transform="scale(1,1) translate(0,0)" xml:space="preserve"><tspan xml:space="preserve" text-rendering="optimizeSpeed" font-size="11.11111111111111" font-weight="normal" font-style="normal" fill="#000000" opacity="1" x="0" text-anchor="start" y="10.833" textLength="48.67483901977539" style="font-family: Verdana, Geneva, sans-serif;">entrance</tspan></text></g><g transform="scale(1,1) translate(0,0)" fill="#6E6E6E" stroke="#6E6E6E" stroke-opacity="1"><path d="M1.5,28.2 L146.333,28.2" fill="none" stroke-width="1" stroke-dasharray="none"/><g><g stroke-dasharray="none"><path d="M0.5,27.2L2.5,27.2L2.5,29.2L0.5,29.2z" stroke-width="0" fill="none"/></g></g></g><g transform="scale(1,1) translate(0,0)" fill="#6E6E6E" stroke="#6E6E6E" stroke-opacity="1"><path d="M1.5,83.266 L146.333,83.266" fill="none" stroke-width="1" stroke-dasharray="none"/><g><g stroke-dasharray="none"><path d="M0.5,82.266L2.5,82.266L2.5,84.266L0.5,84.266z" stroke-width="0" fill="none"/></g></g></g><g stroke="white" fill="none" stroke-opacity="0" stroke-width="3" stroke-dasharray="none" width="3" height="137.5" transform="scale(1,1) translate(4.5,1.5)"><rect width="3" height="137.5"/></g><g stroke="white" fill="none" stroke-opacity="0" stroke-width="3" stroke-dasharray="none" width="144.833" height="3" transform="scale(1,1) translate(1.5,4.5)"><rect width="144.833" height="3"/></g></g><g width="147.833" height="161.1" transform="scale(1,1) translate(934.616,324.948)"><g stroke="#6E6E6E" opacity="1" stroke-width="3" stroke-dasharray="none" width="147.833" height="161.1" transform="scale(1,1) translate(0,0)" fill="none" stroke-opacity="1"><rect width="147.833" height="161.1"/></g><g transform="scale(1,1) translate(0,0)" fill="#E8E8E8" opacity="0.01" stroke="#E8E8E8"><path d="M1.5,1.5 L146.333,1.5 L146.333,28.7 L1.5,28.7 z M1.5,28.7 L146.333,28.7 L146.333,104.366 L1.5,104.366 z M1.5,104.366 L146.333,104.366 L146.333,159.6 L1.5,159.6 z" stroke-width="0" stroke-dasharray="none"/></g><g width="140.83333333333331" height="18.1996359223301" transform="scale(1,1) translate(5.5,5.5)"><text width="140.83333333333331" height="16.66666603088379" transform="scale(1,1) translate(0,0.7664849457231551)" xml:space="preserve"><tspan xml:space="preserve" text-rendering="optimizeSpeed" font-size="13.88888888888889" font-weight="normal" font-style="normal" fill="#000000" opacity="1" x="39.999" text-anchor="start" y="14.167" textLength="60.834434509277344" style="font-family: Verdana, Geneva, sans-serif;">entrance</tspan></text></g><g width="140.83333333333331" height="66.66666507720947" transform="scale(1,1) translate(5.5,32.7)"><text width="140.83333333333331" height="66.66666507720947" transform="scale(1,1) translate(0,0)" xml:space="preserve"><tspan xml:space="preserve" text-rendering="optimizeSpeed" font-size="11.11111111111111" font-weight="normal" font-style="normal" fill="#000000" opacity="1" x="0" text-anchor="start" y="10.833" textLength="31.12282943725586" style="font-family: Verdana, Geneva, sans-serif;">name</tspan><tspan xml:space="preserve" text-rendering="optimizeSpeed" font-size="11.11111111111111" font-weight="normal" font-style="normal" fill="#000000" opacity="1" x="0" text-anchor="start" y="24.167" textLength="126.09679412841797" style="font-family: Verdana, Geneva, sans-serif;">entranceToBookingHall</tspan><tspan xml:space="preserve" text-rendering="optimizeSpeed" font-size="11.11111111111111" font-weight="normal" font-style="normal" fill="#000000" opacity="1" x="0" text-anchor="start" y="37.5" textLength="124.47502899169922" style="font-family: Verdana, Geneva, sans-serif;">bookingHallToPlatform</tspan><tspan xml:space="preserve" text-rendering="optimizeSpeed" font-size="11.11111111111111" font-weight="normal" font-style="normal" fill="#000000" opacity="1" x="0" text-anchor="start" y="50.833" textLength="86.65899658203125" style="font-family: Verdana, Geneva, sans-serif;">platformToTrain</tspan></text></g><g transform="scale(1,1) translate(0,0)" fill="#6E6E6E" stroke="#6E6E6E" stroke-opacity="1"><path d="M1.5,28.2 L146.333,28.2" fill="none" stroke-width="1" stroke-dasharray="none"/><g><g stroke-dasharray="none"><path d="M0.5,27.2L2.5,27.2L2.5,29.2L0.5,29.2z" stroke-width="0" fill="none"/></g></g></g><g transform="scale(1,1) translate(0,0)" fill="#6E6E6E" stroke="#6E6E6E" stroke-opacity="1"><path d="M1.5,103.866 L146.333,103.866" fill="none" stroke-width="1" stroke-dasharray="none"/><g><g stroke-dasharray="none"><path d="M0.5,102.866L2.5,102.866L2.5,104.866L0.5,104.866z" stroke-width="0" fill="none"/></g></g></g><g stroke="white" fill="none" stroke-opacity="0" stroke-width="3" stroke-dasharray="none" width="3" height="137.5" transform="scale(1,1) translate(4.5,1.5)"><rect width="3" height="137.5"/></g><g stroke="white" fill="none" stroke-opacity="0" stroke-width="3" stroke-dasharray="none" width="144.833" height="3" transform="scale(1,1) translate(1.5,4.5)"><rect width="144.833" height="3"/></g></g><g width="172.341" height="62.985" transform="scale(1,1) translate(506.92,391.768)"><g transform="scale(1,1) translate(0,0)" fill="#7F7F7F" stroke="#7F7F7F" stroke-opacity="1"><path d="M0,62.985 L31.491,62.985 L31.491,0 L172.341,0" fill="none" stroke-width="2" stroke-dasharray="none"/><g><g stroke-dasharray="none"><path d="M-2,60.985L2,60.985L2,64.985L-2,64.985z" stroke-width="0" fill="none"/></g></g></g><g stroke-width="0" stroke-dasharray="none" fill="#FFFFFF" opacity="1" width="51.353" height="16.167" transform="scale(1,1) translate(5.815,23.409)"><rect width="51.353" height="16.167"/></g><g width="49.353023529052734" height="62.9845774920683" transform="scale(1,1) translate(6.815,24.409)"><text width="49.353023529052734" height="14.166666030883789" transform="scale(1,1) translate(0,0)" xml:space="preserve"><tspan xml:space="preserve" text-rendering="optimizeSpeed" font-size="12.5" font-weight="normal" font-style="normal" fill="#333333" opacity="1" x="0" text-anchor="start" y="11.667" textLength="49.353023529052734" style="font-family: Arial, Helvetica Neue, Helvetica, sans-serif;">&lt;&lt;has&gt;&gt;</tspan></text></g></g><g width="113.281" height="9.3" transform="scale(1,1) translate(825.001,380.681)"><g transform="scale(1,1) translate(0,0)" fill="#7F7F7F" stroke="#7F7F7F" stroke-opacity="1"><path d="M0,0 L53.541,0 L53.541,9.3 L113.281,9.3" fill="none" stroke-width="2" stroke-dasharray="none"/><g><g stroke-dasharray="none"><path d="M-2,-2L2,-2L2,2L-2,2z" stroke-width="0" fill="none"/></g></g></g><g stroke-width="0" stroke-dasharray="none" fill="#FFFFFF" opacity="1" width="51.353" height="16.167" transform="scale(1,1) translate(27.864,-3.433)"><rect width="51.353" height="16.167"/></g><g width="49.353023529052734" height="14.166666030883789" transform="scale(1,1) translate(28.864,-2.433)"><text width="49.353023529052734" height="14.166666030883789" transform="scale(1,1) translate(0,0)" xml:space="preserve"><tspan xml:space="preserve" text-rendering="optimizeSpeed" font-size="12.5" font-weight="normal" font-style="normal" fill="#333333" opacity="1" x="0" text-anchor="start" y="11.667" textLength="49.353023529052734" style="font-family: Arial, Helvetica Neue, Helvetica, sans-serif;">&lt;&lt;has&gt;&gt;</tspan></text></g></g></g></svg>